<svg xmlns="http://www.w3.org/2000/svg" width="50" height="50" viewBox="0 0 24 24"><g id="IconShavingKitCircle" stroke="none" stroke-width="1" fill="none" fill-rule="evenodd"><path d="M12 0c6.627 0 12 5.373 12 12s-5.373 12-12 12S0 18.627 0 12 5.373 0 12 0zM9.818 9.959H4.331v.264c0 .198.066.463.198.595l.132.199c.066.198.132.396.132.595v4.231c0 1.124.992 2.116 2.182 2.182h.066c.595 0 1.124-.199 1.521-.595.463-.33.727-.926.727-1.52v-4.336c.004-.18.022-.381.132-.491l.133-.199c.066-.198.198-.396.198-.66h.066v-.265zm8.926-.53h-6.149v7.67c0 .397.33.727.727.727h4.628c.397 0 .728-.33.728-.727h.066V9.43zM7.04 12.406c.595 0 1.124.463 1.124 1.058v1.52c0 .596-.463 1.058-1.124 1.058-.595 0-1.124-.529-1.124-1.058v-1.52c0-.595.53-1.058 1.124-1.058zm.53.992c0 .264-.265.529-.53.529a.521.521 0 01-.529-.53v1.521c0 .265.265.53.53.53.33 0 .528-.2.528-.53zm8-1.455c.33 0 .727.132.925.397.264.264.397.595.397.925 0 .662-.53 1.257-1.257 1.257-.33 0-.727-.066-.925-.397a1.305 1.305 0 01-.397-.926c0-.727.529-1.256 1.256-1.256zm-6.943-5.62a.284.284 0 00-.264.265v1.256a.284.284 0 01-.265.264.284.284 0 01-.264-.264V6.587a.284.284 0 00-.265-.265.284.284 0 00-.264.265v1.256a.284.284 0 01-.265.264.284.284 0 01-.264-.264V6.587a.284.284 0 00-.265-.265.284.284 0 00-.264.265v1.256a.284.284 0 01-.265.264.284.284 0 01-.264-.264V6.587c-.066-.132-.198-.265-.33-.265a.284.284 0 00-.265.265v.529h-.86c-.066 0-.132.066-.198.132S4 7.314 4 7.446l.132 2.116h5.752l.133-2.116c0-.066 0-.132-.067-.198-.066-.066-.066-.132-.198-.132h-.86v-.53a.284.284 0 00-.264-.264zm8.198 1.058h-2.38c-.66.265-1.653.794-1.851 1.52h6.083c-.199-.594-1.19-1.19-1.852-1.52zm1.918-.793a.284.284 0 00-.265.264c0 .132.133.265.265.265a.284.284 0 00.264-.265.284.284 0 00-.264-.264zm.992 0a.284.284 0 00-.265.264c0 .132.132.265.265.265A.284.284 0 0020 6.85a.284.284 0 00-.264-.264zm-4.96-1.323a.284.284 0 00-.264.265v.992c0 .132.133.264.265.264h1.52s.133 0 .133-.066c.066 0 .066-.066.066-.132V5.529l-.066-.132s-.066-.066-.132-.066h-1.521zm3.439.53c-.198 0-.265.132-.265.264s.133.264.265.264a.284.284 0 00.264-.264.284.284 0 00-.264-.265zm-1.058 0a.284.284 0 00-.264.264c0 .132.132.264.264.264a.284.284 0 00.264-.264.284.284 0 00-.264-.265zm2.116 0a.284.284 0 00-.265.264c0 .132.132.264.265.264a.284.284 0 00.264-.264c-.066-.132-.132-.265-.264-.265zM18.743 5c-.198 0-.264.132-.264.264 0 .133.133.265.265.265a.284.284 0 00.264-.265.284.284 0 00-.264-.264zm.993 0a.284.284 0 00-.265.264c0 .133.132.265.265.265.132 0 .264-.066.264-.265A.284.284 0 0019.736 5z" id="Combined-Shape" fill="#066B8C"/></g></svg>