<svg xmlns="http://www.w3.org/2000/svg" width="50" height="50" viewBox="0 0 24 24"><g id="IconMovingTruckCircle" stroke="none" stroke-width="1" fill="none" fill-rule="evenodd"><path d="M12 0c6.627 0 12 5.373 12 12s-5.373 12-12 12S0 18.627 0 12 5.373 0 12 0zm6.399 14.364c-.805.062-1.609.743-1.795 1.547-.185.743.31 1.3 1.052 1.176.743-.062 1.486-.68 1.671-1.423.186-.681-.247-1.3-.928-1.3zm-7.979.057l-.128.005c-.742 0-1.547.68-1.732 1.485-.186.68.309 1.238.99 1.176.804-.062 1.547-.68 1.732-1.485.186-.681-.247-1.238-.99-1.176zM16.604 7H6.332c-.31.062-.495.31-.495.557.045.27.188.278.334.263l.109-.013.052-.003h7.611c.372 0 .557.186.557.496 0 .309-.247.495-.557.495H8.25c-.185 0-.247 0-.31.185-.061.248-.185.495-.247.743-.062.185-.124.247-.31.247H4.502a.534.534 0 00-.273.062c-.248.062-.31.31-.31.557 0 .248.186.186.372.186h7.55c.247 0 .433.247.433.495 0 .247-.186.433-.434.495H7.2c-.248 0-.372.062-.434.248 0 .185-.124.433-.186.618-.062.186-.185.248-.371.248H2.371c-.185 0-.371.247-.371.495 0 .31.248.247.433.247H6.89c.433 0 .619.186.619.496 0 .309-.186.495-.62.495h-.742c-.062 0-.186.061-.186.123-.309.62 0 1.052.557 1.052h1.238c.186.062.248 0 .371-.185.495-1.114 1.61-1.795 2.6-1.733.804 0 1.299.619 1.299 1.361 0 .186-.062.372-.062.557H15.8c.186 0 .247-.062.371-.247.433-1.114 1.547-1.795 2.6-1.733.68.062 1.237.619 1.237 1.3 0 .185-.062.433-.062.68.433 0 .866 0 1.238-.062.495-.061.866-.742.68-1.237 0-.062-.062-.124-.062-.124-.185-.062-.123-.31 0-.557.062-.31.124-.68.186-1.052.062-.371-.124-.495-.433-.619-.248-.062-.557-.123-.805-.247-.185-.062-.37-.248-.556-.433-.372-.434-.681-.805-.929-1.3-.31-.557-.804-.804-1.423-.743-.371.062-.68 0-.99 0 .124-.433.31-.928.557-1.361.185-.743 0-1.052-.805-1.052zm1.795 3.094c.062 0 .186.062.31.124.37.557.742 1.114 1.113 1.67-.185.31-.433.434-.804.434H16.48c.123-.371.185-.743.309-1.052.124-.31.186-.68.31-.99.061-.124.061-.186.247-.186z" id="Combined-Shape" fill="#066B8C"/></g></svg>